<svg xmlns="http://www.w3.org/2000/svg" viewBox="0 0 298.67 148.63"><defs><style>.cls-1{fill:#002347;}</style></defs><g id="Layer_2" data-name="Layer 2"><g id="Layer_1-2" data-name="Layer 1"><path class="cls-1" d="M13.66,50.82A6.79,6.79,0,0,1,16,48.53a7.3,7.3,0,0,1,3.42-.94c2.63-.13,10.25-.21,20.53-.05a6,6,0,0,1,4.17,3,6.55,6.55,0,0,1,0,5.84l-12,22.43L23,94.92c-.26.39-3.23,5-2.49,8.57a7.32,7.32,0,0,0,.89,2.3,3.92,3.92,0,0,0,1.32,1.5,3.72,3.72,0,0,0,2.06.63C36,108,44.14,108,45.9,108a5.27,5.27,0,0,0,2.63-.63,5.18,5.18,0,0,0,2-1.91q3.26-6,6.67-12.18,4.47-8.05,9-15.81l27.54,49.75a9,9,0,0,1-.21,7.47,8.09,8.09,0,0,1-4.74,3.91l-52.45.09a5.55,5.55,0,0,1-3.39-.92A5.82,5.82,0,0,1,31,135.65C14.2,106.3,2,84.67.9,82.13A11.29,11.29,0,0,1,0,79a10.3,10.3,0,0,1,.4-3.86L6.3,63.5Z"/><path class="cls-1" d="M130.74,53.57,101,2.72A6.94,6.94,0,0,0,98.78.77,6.62,6.62,0,0,0,96,0L44.6.85a5.52,5.52,0,0,0-2.1.37A6.85,6.85,0,0,0,39,5a8,8,0,0,0,.29,6.12l44.8,81.11C98,92,108,91.79,111.54,92a8.92,8.92,0,0,0,4.63-.84,8.42,8.42,0,0,0,3.1-2.77l12.18-27.7a7.56,7.56,0,0,0,.44-4.18A7.87,7.87,0,0,0,130.74,53.57Zm-20,24a4.5,4.5,0,0,1-1.49,1.26,4.2,4.2,0,0,1-1.08.34c-9.36.37-16.41-.32-19.23-1.29a17.59,17.59,0,0,1-3.47-1.67,17.37,17.37,0,0,1-3.27-2.87C80.15,71,67.7,50,51.23,20.75c11.59.33,20.25.63,24.12.67a9.45,9.45,0,0,1,4.35,1,10.48,10.48,0,0,1,4.07,3.79c2.3,3.48,12.81,21.59,26.82,46.6A4.8,4.8,0,0,1,110.77,77.59Z"/><path class="cls-1" d="M128.41,131.86h-15l-2.65,6.84H97.2l17.27-39.27h13.09l17.28,39.27H131.06Zm-3.67-9.54-3.84-9.88-3.83,9.88Z"/><path class="cls-1" d="M145.3,99.09c0-3.64,3-6.45,7.67-6.45s7.68,2.58,7.68,6.23c0,3.87-3,6.67-7.68,6.67S145.3,102.74,145.3,99.09Zm1.3,8.92h12.75V138.7H146.6Z"/><path class="cls-1" d="M210.55,143.64a14.63,14.63,0,0,1-11.52,5c-7,0-11.34-2.19-18.45-9.59-9.94-2.08-16.76-9.88-16.76-20,0-11.89,9.42-20.53,22.29-20.53s22.29,8.64,22.29,20.53a19.72,19.72,0,0,1-12.75,18.74,4.6,4.6,0,0,0,3.67,1.63,7.84,7.84,0,0,0,5.47-2.53Zm-33.3-24.58c0,6.12,3.95,9.82,8.86,9.82s8.86-3.7,8.86-9.82-3.95-9.81-8.86-9.81S177.25,113,177.25,119.06Z"/><path class="cls-1" d="M246.12,128.71v10H213.27V99.43h32.11v10h-19V114h16.71v9.53H226.36v5.16Z"/><path class="cls-1" d="M286.54,138.7l-.11-17.9-8.58,14.37H272l-8.58-13.75V138.7H251.26V99.43h10.95l12.87,20.92,12.53-20.92h10.95l.11,39.27Z"/></g></g></svg>